<mxfile host="Electron" agent="Mozilla/5.0 (Windows NT 10.0; Win64; x64) AppleWebKit/537.36 (KHTML, like Gecko) draw.io/26.1.1 Chrome/132.0.6834.210 Electron/34.3.3 Safari/537.36" version="26.1.1">
  <diagram id="C5RBs43oDa-KdzZeNtuy" name="Page-1">
    <mxGraphModel dx="2419" dy="463" grid="1" gridSize="10" guides="1" tooltips="1" connect="1" arrows="1" fold="1" page="1" pageScale="1" pageWidth="827" pageHeight="1169" math="0" shadow="0">
      <root>
        <mxCell id="WIyWlLk6GJQsqaUBKTNV-0" />
        <mxCell id="WIyWlLk6GJQsqaUBKTNV-1" parent="WIyWlLk6GJQsqaUBKTNV-0" />
        <mxCell id="3RTm3WkitcO1QFS_mcWZ-4" value="Universidade" style="swimlane;fontStyle=1;align=center;verticalAlign=top;childLayout=stackLayout;horizontal=1;startSize=26;horizontalStack=0;resizeParent=1;resizeParentMax=0;resizeLast=0;collapsible=1;marginBottom=0;whiteSpace=wrap;html=1;" parent="WIyWlLk6GJQsqaUBKTNV-1" vertex="1">
          <mxGeometry x="300" y="150" width="350" height="160" as="geometry" />
        </mxCell>
        <mxCell id="3RTm3WkitcO1QFS_mcWZ-5" value="- instancia: static Universidade*&lt;div&gt;- m_gerenciadorPessoas: GerenciadorPessoas&lt;/div&gt;&lt;div&gt;- m_gerenciadorAcamecido: GerenciadorAcademico&lt;/div&gt;" style="text;strokeColor=none;fillColor=none;align=left;verticalAlign=top;spacingLeft=4;spacingRight=4;overflow=hidden;rotatable=0;points=[[0,0.5],[1,0.5]];portConstraint=eastwest;whiteSpace=wrap;html=1;" parent="3RTm3WkitcO1QFS_mcWZ-4" vertex="1">
          <mxGeometry y="26" width="350" height="64" as="geometry" />
        </mxCell>
        <mxCell id="3RTm3WkitcO1QFS_mcWZ-6" value="" style="line;strokeWidth=1;fillColor=none;align=left;verticalAlign=middle;spacingTop=-1;spacingLeft=3;spacingRight=3;rotatable=0;labelPosition=right;points=[];portConstraint=eastwest;strokeColor=inherit;" parent="3RTm3WkitcO1QFS_mcWZ-4" vertex="1">
          <mxGeometry y="90" width="350" height="8" as="geometry" />
        </mxCell>
        <mxCell id="3RTm3WkitcO1QFS_mcWZ-7" value="+ getInstance(): static Universidade&amp;amp;&lt;div&gt;+ getGerenciadorDePessoas(): GerenciandorDePessoas&amp;amp;&lt;/div&gt;&lt;div&gt;+ getGerenciadorAcademico(): GerenciadorAcademico&amp;amp;&lt;/div&gt;" style="text;strokeColor=none;fillColor=none;align=left;verticalAlign=top;spacingLeft=4;spacingRight=4;overflow=hidden;rotatable=0;points=[[0,0.5,0,0,0],[0.04,1,0,0,0],[0.2,1,0,0,0],[0.37,0.95,0,0,0],[0.53,1,0,0,0],[0.62,0.95,0,0,0],[0.82,1,0,0,0],[1,0.5,0,0,0]];portConstraint=eastwest;whiteSpace=wrap;html=1;" parent="3RTm3WkitcO1QFS_mcWZ-4" vertex="1">
          <mxGeometry y="98" width="350" height="62" as="geometry" />
        </mxCell>
        <mxCell id="3RTm3WkitcO1QFS_mcWZ-16" value="GerenciadorDePessoas" style="swimlane;fontStyle=1;align=center;verticalAlign=top;childLayout=stackLayout;horizontal=1;startSize=26;horizontalStack=0;resizeParent=1;resizeParentMax=0;resizeLast=0;collapsible=1;marginBottom=0;whiteSpace=wrap;html=1;" parent="WIyWlLk6GJQsqaUBKTNV-1" vertex="1">
          <mxGeometry x="570" y="400" width="270" height="170" as="geometry" />
        </mxCell>
        <mxCell id="3RTm3WkitcO1QFS_mcWZ-17" value="- m_pessoas: Lista&amp;lt;std::unique_ptr&amp;lt;Pessoa&amp;gt;&amp;gt;&lt;div&gt;- m_proximoIdPessoa: long&lt;/div&gt;" style="text;strokeColor=none;fillColor=none;align=left;verticalAlign=top;spacingLeft=4;spacingRight=4;overflow=hidden;rotatable=0;points=[[0,0.5],[1,0.5]];portConstraint=eastwest;whiteSpace=wrap;html=1;" parent="3RTm3WkitcO1QFS_mcWZ-16" vertex="1">
          <mxGeometry y="26" width="270" height="44" as="geometry" />
        </mxCell>
        <mxCell id="3RTm3WkitcO1QFS_mcWZ-18" value="" style="line;strokeWidth=1;fillColor=none;align=left;verticalAlign=middle;spacingTop=-1;spacingLeft=3;spacingRight=3;rotatable=0;labelPosition=right;points=[];portConstraint=eastwest;strokeColor=inherit;" parent="3RTm3WkitcO1QFS_mcWZ-16" vertex="1">
          <mxGeometry y="70" width="270" height="8" as="geometry" />
        </mxCell>
        <mxCell id="3RTm3WkitcO1QFS_mcWZ-19" value="+ criarAluno(): Aluno&amp;amp;&lt;div&gt;+ criarProfessor(): Professor&amp;amp;&lt;/div&gt;&lt;div&gt;+ getPessoaPorId(long id): Pessoa*&lt;/div&gt;&lt;div&gt;+ getAlunoPorId(long id): Aluno*&lt;/div&gt;&lt;div&gt;+ listarTodosAlunos(): Lista&amp;lt;Aluno*&amp;gt;&lt;/div&gt;" style="text;strokeColor=none;fillColor=none;align=left;verticalAlign=top;spacingLeft=4;spacingRight=4;overflow=hidden;rotatable=0;points=[[0,0.5,0,0,0],[0.49,1,0,0,0],[1,0.5,0,0,0]];portConstraint=eastwest;whiteSpace=wrap;html=1;" parent="3RTm3WkitcO1QFS_mcWZ-16" vertex="1">
          <mxGeometry y="78" width="270" height="92" as="geometry" />
        </mxCell>
        <mxCell id="3RTm3WkitcO1QFS_mcWZ-21" value="GerenciadorAcademico" style="swimlane;fontStyle=1;align=center;verticalAlign=top;childLayout=stackLayout;horizontal=1;startSize=26;horizontalStack=0;resizeParent=1;resizeParentMax=0;resizeLast=0;collapsible=1;marginBottom=0;whiteSpace=wrap;html=1;" parent="WIyWlLk6GJQsqaUBKTNV-1" vertex="1">
          <mxGeometry y="355" width="310" height="230" as="geometry" />
        </mxCell>
        <mxCell id="3RTm3WkitcO1QFS_mcWZ-22" value="- m_departamentos: Lista&amp;lt;Departamento&amp;gt;&lt;div&gt;- m_cursos: Lista&amp;lt;Curso&amp;gt;&lt;/div&gt;&lt;div&gt;- m_disciplinas: Lista&amp;lt;Disciplina&amp;gt;&lt;/div&gt;&lt;div&gt;- m_turmas: Lista&amp;lt;Turma&amp;gt;&lt;/div&gt;&lt;div&gt;- m_proximoIdAcademico: long&lt;/div&gt;" style="text;strokeColor=none;fillColor=none;align=left;verticalAlign=top;spacingLeft=4;spacingRight=4;overflow=hidden;rotatable=0;points=[[0,0.5],[1,0.5]];portConstraint=eastwest;whiteSpace=wrap;html=1;" parent="3RTm3WkitcO1QFS_mcWZ-21" vertex="1">
          <mxGeometry y="26" width="310" height="94" as="geometry" />
        </mxCell>
        <mxCell id="3RTm3WkitcO1QFS_mcWZ-23" value="" style="line;strokeWidth=1;fillColor=none;align=left;verticalAlign=middle;spacingTop=-1;spacingLeft=3;spacingRight=3;rotatable=0;labelPosition=right;points=[];portConstraint=eastwest;strokeColor=inherit;" parent="3RTm3WkitcO1QFS_mcWZ-21" vertex="1">
          <mxGeometry y="120" width="310" height="8" as="geometry" />
        </mxCell>
        <mxCell id="3RTm3WkitcO1QFS_mcWZ-24" value="+ criarDepartamento(...): Departamento&amp;amp;&lt;div&gt;+ criarCurso(...): Curso&amp;amp;&lt;/div&gt;&lt;div&gt;+ criarDisciplina(...): Disciplina&amp;amp;&lt;/div&gt;&lt;div&gt;+ getDepartamentoPorId(long id): Departamento*&lt;/div&gt;&lt;div&gt;+ getCursoPorId(long id): Curso*&lt;/div&gt;&lt;div&gt;+ getDisciplinaPorId(long id): Disciplina*&lt;/div&gt;" style="text;strokeColor=none;fillColor=none;align=left;verticalAlign=top;spacingLeft=4;spacingRight=4;overflow=hidden;rotatable=0;points=[[0,0.5],[1,0.5]];portConstraint=eastwest;whiteSpace=wrap;html=1;" parent="3RTm3WkitcO1QFS_mcWZ-21" vertex="1">
          <mxGeometry y="128" width="310" height="102" as="geometry" />
        </mxCell>
        <mxCell id="3RTm3WkitcO1QFS_mcWZ-28" value="Pessoa (Classe Abstrata)" style="swimlane;fontStyle=1;align=center;verticalAlign=top;childLayout=stackLayout;horizontal=1;startSize=26;horizontalStack=0;resizeParent=1;resizeParentMax=0;resizeLast=0;collapsible=1;marginBottom=0;whiteSpace=wrap;html=1;" parent="WIyWlLk6GJQsqaUBKTNV-1" vertex="1">
          <mxGeometry x="563" y="670" width="280" height="160" as="geometry" />
        </mxCell>
        <mxCell id="3RTm3WkitcO1QFS_mcWZ-29" value="# m_id: long&lt;div&gt;# m_nome: string&lt;/div&gt;&lt;div&gt;# m_cpf: string&lt;/div&gt;" style="text;strokeColor=none;fillColor=none;align=left;verticalAlign=top;spacingLeft=4;spacingRight=4;overflow=hidden;rotatable=0;points=[[0,0.5],[1,0.5]];portConstraint=eastwest;whiteSpace=wrap;html=1;" parent="3RTm3WkitcO1QFS_mcWZ-28" vertex="1">
          <mxGeometry y="26" width="280" height="64" as="geometry" />
        </mxCell>
        <mxCell id="3RTm3WkitcO1QFS_mcWZ-30" value="" style="line;strokeWidth=1;fillColor=none;align=left;verticalAlign=middle;spacingTop=-1;spacingLeft=3;spacingRight=3;rotatable=0;labelPosition=right;points=[];portConstraint=eastwest;strokeColor=inherit;" parent="3RTm3WkitcO1QFS_mcWZ-28" vertex="1">
          <mxGeometry y="90" width="280" height="8" as="geometry" />
        </mxCell>
        <mxCell id="3RTm3WkitcO1QFS_mcWZ-31" value="+ getId(): long const&amp;nbsp;&lt;div&gt;+ getNome(): const string&amp;amp;&lt;/div&gt;&lt;div&gt;+ virtual exibirDetalhes() const =&amp;nbsp; 0&lt;/div&gt;" style="text;strokeColor=none;fillColor=none;align=left;verticalAlign=top;spacingLeft=4;spacingRight=4;overflow=hidden;rotatable=0;points=[[0,0.5],[1,0.5]];portConstraint=eastwest;whiteSpace=wrap;html=1;" parent="3RTm3WkitcO1QFS_mcWZ-28" vertex="1">
          <mxGeometry y="98" width="280" height="62" as="geometry" />
        </mxCell>
        <mxCell id="3RTm3WkitcO1QFS_mcWZ-32" value="Aluno: virtual public Pessoa" style="swimlane;fontStyle=1;align=center;verticalAlign=top;childLayout=stackLayout;horizontal=1;startSize=26;horizontalStack=0;resizeParent=1;resizeParentMax=0;resizeLast=0;collapsible=1;marginBottom=0;whiteSpace=wrap;html=1;" parent="WIyWlLk6GJQsqaUBKTNV-1" vertex="1">
          <mxGeometry x="250" y="890" width="300" height="180" as="geometry" />
        </mxCell>
        <mxCell id="3RTm3WkitcO1QFS_mcWZ-33" value="- m_matricula: string&lt;div&gt;- m_cursoId: long&lt;/div&gt;&lt;div&gt;- m_historico: HistoricoAcademico&lt;/div&gt;" style="text;strokeColor=none;fillColor=none;align=left;verticalAlign=top;spacingLeft=4;spacingRight=4;overflow=hidden;rotatable=0;points=[[0,0.5],[1,0.5]];portConstraint=eastwest;whiteSpace=wrap;html=1;" parent="3RTm3WkitcO1QFS_mcWZ-32" vertex="1">
          <mxGeometry y="26" width="300" height="54" as="geometry" />
        </mxCell>
        <mxCell id="3RTm3WkitcO1QFS_mcWZ-34" value="" style="line;strokeWidth=1;fillColor=none;align=left;verticalAlign=middle;spacingTop=-1;spacingLeft=3;spacingRight=3;rotatable=0;labelPosition=right;points=[];portConstraint=eastwest;strokeColor=inherit;" parent="3RTm3WkitcO1QFS_mcWZ-32" vertex="1">
          <mxGeometry y="80" width="300" height="8" as="geometry" />
        </mxCell>
        <mxCell id="3RTm3WkitcO1QFS_mcWZ-35" value="+ getMatricula(): const string&amp;amp;&lt;div&gt;+ getCursoId(): long const&lt;/div&gt;&lt;div&gt;+ setCursoId(long cursoId): void&lt;/div&gt;&lt;div&gt;+ adicionarNota(long disciplinaId, double valor): void&lt;/div&gt;&lt;div&gt;+ getHistorico(): const HistoricoAcademico&amp;amp;&lt;/div&gt;" style="text;strokeColor=none;fillColor=none;align=left;verticalAlign=top;spacingLeft=4;spacingRight=4;overflow=hidden;rotatable=0;points=[[0,0.5,0,0,0],[0.5,0.97,0,0,0],[1,0.5,0,0,0]];portConstraint=eastwest;whiteSpace=wrap;html=1;" parent="3RTm3WkitcO1QFS_mcWZ-32" vertex="1">
          <mxGeometry y="88" width="300" height="92" as="geometry" />
        </mxCell>
        <mxCell id="3RTm3WkitcO1QFS_mcWZ-37" value="" style="endArrow=diamondThin;endFill=1;endSize=24;html=1;rounded=0;exitX=0.5;exitY=0;exitDx=0;exitDy=0;entryX=0;entryY=0.5;entryDx=0;entryDy=0;entryPerimeter=0;" parent="WIyWlLk6GJQsqaUBKTNV-1" source="3RTm3WkitcO1QFS_mcWZ-21" target="3RTm3WkitcO1QFS_mcWZ-7" edge="1">
          <mxGeometry width="160" relative="1" as="geometry">
            <mxPoint x="400" y="400" as="sourcePoint" />
            <mxPoint x="560" y="400" as="targetPoint" />
            <Array as="points">
              <mxPoint x="155" y="280" />
            </Array>
          </mxGeometry>
        </mxCell>
        <mxCell id="3RTm3WkitcO1QFS_mcWZ-38" value="" style="endArrow=diamondThin;endFill=1;endSize=24;html=1;rounded=0;entryX=1;entryY=0.5;entryDx=0;entryDy=0;entryPerimeter=0;exitX=0.5;exitY=0;exitDx=0;exitDy=0;" parent="WIyWlLk6GJQsqaUBKTNV-1" source="3RTm3WkitcO1QFS_mcWZ-16" target="3RTm3WkitcO1QFS_mcWZ-7" edge="1">
          <mxGeometry width="160" relative="1" as="geometry">
            <mxPoint x="400" y="400" as="sourcePoint" />
            <mxPoint x="560" y="400" as="targetPoint" />
            <Array as="points">
              <mxPoint x="705" y="280" />
            </Array>
          </mxGeometry>
        </mxCell>
        <mxCell id="3RTm3WkitcO1QFS_mcWZ-39" value="1" style="text;html=1;align=center;verticalAlign=middle;resizable=0;points=[];autosize=1;strokeColor=none;fillColor=none;" parent="WIyWlLk6GJQsqaUBKTNV-1" vertex="1">
          <mxGeometry x="270" y="290" width="30" height="30" as="geometry" />
        </mxCell>
        <mxCell id="3RTm3WkitcO1QFS_mcWZ-40" value="1" style="text;html=1;align=center;verticalAlign=middle;resizable=0;points=[];autosize=1;strokeColor=none;fillColor=none;" parent="WIyWlLk6GJQsqaUBKTNV-1" vertex="1">
          <mxGeometry x="660" y="280" width="30" height="30" as="geometry" />
        </mxCell>
        <mxCell id="3RTm3WkitcO1QFS_mcWZ-42" value="" style="endArrow=diamondThin;endFill=1;endSize=24;html=1;rounded=0;entryX=0.49;entryY=1;entryDx=0;entryDy=0;entryPerimeter=0;exitX=0.5;exitY=0;exitDx=0;exitDy=0;" parent="WIyWlLk6GJQsqaUBKTNV-1" source="3RTm3WkitcO1QFS_mcWZ-28" target="3RTm3WkitcO1QFS_mcWZ-19" edge="1">
          <mxGeometry width="160" relative="1" as="geometry">
            <mxPoint x="400" y="680" as="sourcePoint" />
            <mxPoint x="680" y="590" as="targetPoint" />
          </mxGeometry>
        </mxCell>
        <mxCell id="3RTm3WkitcO1QFS_mcWZ-45" value="Extends" style="endArrow=block;endSize=16;endFill=0;html=1;rounded=0;entryX=0.5;entryY=0;entryDx=0;entryDy=0;edgeStyle=orthogonalEdgeStyle;exitX=0;exitY=0.5;exitDx=0;exitDy=0;" parent="WIyWlLk6GJQsqaUBKTNV-1" source="3RTm3WkitcO1QFS_mcWZ-31" target="3RTm3WkitcO1QFS_mcWZ-32" edge="1">
          <mxGeometry width="160" relative="1" as="geometry">
            <mxPoint x="510" y="760" as="sourcePoint" />
            <mxPoint x="530" y="780" as="targetPoint" />
          </mxGeometry>
        </mxCell>
        <mxCell id="3RTm3WkitcO1QFS_mcWZ-47" value="Funcionario: virtual public Pessoa" style="swimlane;fontStyle=1;align=center;verticalAlign=top;childLayout=stackLayout;horizontal=1;startSize=26;horizontalStack=0;resizeParent=1;resizeParentMax=0;resizeLast=0;collapsible=1;marginBottom=0;whiteSpace=wrap;html=1;" parent="WIyWlLk6GJQsqaUBKTNV-1" vertex="1">
          <mxGeometry x="790" y="900" width="320" height="140" as="geometry" />
        </mxCell>
        <mxCell id="3RTm3WkitcO1QFS_mcWZ-48" value="- m_idFuncional: string&lt;div&gt;- m_salario: double&lt;/div&gt;&lt;div&gt;- m_cargo: string&lt;/div&gt;" style="text;strokeColor=none;fillColor=none;align=left;verticalAlign=top;spacingLeft=4;spacingRight=4;overflow=hidden;rotatable=0;points=[[0,0.5],[1,0.5]];portConstraint=eastwest;whiteSpace=wrap;html=1;" parent="3RTm3WkitcO1QFS_mcWZ-47" vertex="1">
          <mxGeometry y="26" width="320" height="64" as="geometry" />
        </mxCell>
        <mxCell id="3RTm3WkitcO1QFS_mcWZ-49" value="" style="line;strokeWidth=1;fillColor=none;align=left;verticalAlign=middle;spacingTop=-1;spacingLeft=3;spacingRight=3;rotatable=0;labelPosition=right;points=[];portConstraint=eastwest;strokeColor=inherit;" parent="3RTm3WkitcO1QFS_mcWZ-47" vertex="1">
          <mxGeometry y="90" width="320" height="8" as="geometry" />
        </mxCell>
        <mxCell id="3RTm3WkitcO1QFS_mcWZ-50" value="+ getSalario(): string&lt;div&gt;+ setCargo(const string&amp;amp; cargo): void&lt;/div&gt;" style="text;strokeColor=none;fillColor=none;align=left;verticalAlign=top;spacingLeft=4;spacingRight=4;overflow=hidden;rotatable=0;points=[[0,0.5,0,0,0],[0.47,0.93,0,0,0],[1,0.5,0,0,0]];portConstraint=eastwest;whiteSpace=wrap;html=1;" parent="3RTm3WkitcO1QFS_mcWZ-47" vertex="1">
          <mxGeometry y="98" width="320" height="42" as="geometry" />
        </mxCell>
        <mxCell id="3RTm3WkitcO1QFS_mcWZ-51" value="Extends" style="endArrow=block;endSize=16;endFill=0;html=1;rounded=0;exitX=1;exitY=0.5;exitDx=0;exitDy=0;entryX=0.5;entryY=0;entryDx=0;entryDy=0;edgeStyle=orthogonalEdgeStyle;" parent="WIyWlLk6GJQsqaUBKTNV-1" source="3RTm3WkitcO1QFS_mcWZ-31" target="3RTm3WkitcO1QFS_mcWZ-47" edge="1">
          <mxGeometry width="160" relative="1" as="geometry">
            <mxPoint x="660" y="910" as="sourcePoint" />
            <mxPoint x="820" y="910" as="targetPoint" />
          </mxGeometry>
        </mxCell>
        <mxCell id="3RTm3WkitcO1QFS_mcWZ-52" value="Professor: public Funcionario" style="swimlane;fontStyle=1;align=center;verticalAlign=top;childLayout=stackLayout;horizontal=1;startSize=26;horizontalStack=0;resizeParent=1;resizeParentMax=0;resizeLast=0;collapsible=1;marginBottom=0;whiteSpace=wrap;html=1;" parent="WIyWlLk6GJQsqaUBKTNV-1" vertex="1">
          <mxGeometry x="780" y="1140" width="320" height="150" as="geometry" />
        </mxCell>
        <mxCell id="3RTm3WkitcO1QFS_mcWZ-53" value="- m_departamentoId: long&lt;div&gt;- m_disciplinasLecionadasId: Lista&amp;lt;long&amp;gt;&lt;/div&gt;" style="text;strokeColor=none;fillColor=none;align=left;verticalAlign=top;spacingLeft=4;spacingRight=4;overflow=hidden;rotatable=0;points=[[0,0.5],[1,0.5]];portConstraint=eastwest;whiteSpace=wrap;html=1;" parent="3RTm3WkitcO1QFS_mcWZ-52" vertex="1">
          <mxGeometry y="26" width="320" height="54" as="geometry" />
        </mxCell>
        <mxCell id="3RTm3WkitcO1QFS_mcWZ-54" value="" style="line;strokeWidth=1;fillColor=none;align=left;verticalAlign=middle;spacingTop=-1;spacingLeft=3;spacingRight=3;rotatable=0;labelPosition=right;points=[];portConstraint=eastwest;strokeColor=inherit;" parent="3RTm3WkitcO1QFS_mcWZ-52" vertex="1">
          <mxGeometry y="80" width="320" height="8" as="geometry" />
        </mxCell>
        <mxCell id="3RTm3WkitcO1QFS_mcWZ-55" value="+ getDepartamentoId(): long const&lt;div&gt;+ setDepartamentoId(long deptoId): void&lt;/div&gt;&lt;div&gt;+ adicionarDisciplinaLecionada(long disciplinaId): void&lt;/div&gt;" style="text;strokeColor=none;fillColor=none;align=left;verticalAlign=top;spacingLeft=4;spacingRight=4;overflow=hidden;rotatable=0;points=[[0,0.5],[1,0.5]];portConstraint=eastwest;whiteSpace=wrap;html=1;" parent="3RTm3WkitcO1QFS_mcWZ-52" vertex="1">
          <mxGeometry y="88" width="320" height="62" as="geometry" />
        </mxCell>
        <mxCell id="3RTm3WkitcO1QFS_mcWZ-56" value="Extends" style="endArrow=block;endSize=16;endFill=0;html=1;rounded=0;entryX=0.5;entryY=0;entryDx=0;entryDy=0;" parent="WIyWlLk6GJQsqaUBKTNV-1" target="3RTm3WkitcO1QFS_mcWZ-52" edge="1">
          <mxGeometry width="160" relative="1" as="geometry">
            <mxPoint x="940" y="1040" as="sourcePoint" />
            <mxPoint x="950" y="1120" as="targetPoint" />
          </mxGeometry>
        </mxCell>
        <mxCell id="3RTm3WkitcO1QFS_mcWZ-61" value="&lt;span style=&quot;font-weight: 400;&quot;&gt;AlunoMonitor: public Aluno, public Funcionario&lt;/span&gt;" style="swimlane;fontStyle=1;align=center;verticalAlign=top;childLayout=stackLayout;horizontal=1;startSize=26;horizontalStack=0;resizeParent=1;resizeParentMax=0;resizeLast=0;collapsible=1;marginBottom=0;whiteSpace=wrap;html=1;" parent="WIyWlLk6GJQsqaUBKTNV-1" vertex="1">
          <mxGeometry x="250" y="1280" width="300" height="86" as="geometry" />
        </mxCell>
        <mxCell id="3RTm3WkitcO1QFS_mcWZ-62" value="- m_disciplinaMonitoriaId: long" style="text;strokeColor=none;fillColor=none;align=left;verticalAlign=top;spacingLeft=4;spacingRight=4;overflow=hidden;rotatable=0;points=[[0,0.5],[1,0.5]];portConstraint=eastwest;whiteSpace=wrap;html=1;" parent="3RTm3WkitcO1QFS_mcWZ-61" vertex="1">
          <mxGeometry y="26" width="300" height="26" as="geometry" />
        </mxCell>
        <mxCell id="3RTm3WkitcO1QFS_mcWZ-63" value="" style="line;strokeWidth=1;fillColor=none;align=left;verticalAlign=middle;spacingTop=-1;spacingLeft=3;spacingRight=3;rotatable=0;labelPosition=right;points=[];portConstraint=eastwest;strokeColor=inherit;" parent="3RTm3WkitcO1QFS_mcWZ-61" vertex="1">
          <mxGeometry y="52" width="300" height="8" as="geometry" />
        </mxCell>
        <mxCell id="3RTm3WkitcO1QFS_mcWZ-64" value="+" style="text;strokeColor=none;fillColor=none;align=left;verticalAlign=top;spacingLeft=4;spacingRight=4;overflow=hidden;rotatable=0;points=[[0,0.5],[1,0.5]];portConstraint=eastwest;whiteSpace=wrap;html=1;" parent="3RTm3WkitcO1QFS_mcWZ-61" vertex="1">
          <mxGeometry y="60" width="300" height="26" as="geometry" />
        </mxCell>
        <mxCell id="3RTm3WkitcO1QFS_mcWZ-65" value="Extends" style="endArrow=block;endSize=16;endFill=0;html=1;rounded=0;exitX=0;exitY=0.5;exitDx=0;exitDy=0;entryX=1;entryY=0.5;entryDx=0;entryDy=0;edgeStyle=orthogonalEdgeStyle;" parent="WIyWlLk6GJQsqaUBKTNV-1" source="3RTm3WkitcO1QFS_mcWZ-48" target="3RTm3WkitcO1QFS_mcWZ-62" edge="1">
          <mxGeometry width="160" relative="1" as="geometry">
            <mxPoint x="560" y="1110" as="sourcePoint" />
            <mxPoint x="720" y="1110" as="targetPoint" />
          </mxGeometry>
        </mxCell>
        <mxCell id="3RTm3WkitcO1QFS_mcWZ-66" value="Extends" style="endArrow=block;endSize=16;endFill=0;html=1;rounded=0;entryX=0.5;entryY=0;entryDx=0;entryDy=0;" parent="WIyWlLk6GJQsqaUBKTNV-1" target="3RTm3WkitcO1QFS_mcWZ-61" edge="1">
          <mxGeometry width="160" relative="1" as="geometry">
            <mxPoint x="400" y="1070" as="sourcePoint" />
            <mxPoint x="720" y="1110" as="targetPoint" />
          </mxGeometry>
        </mxCell>
        <mxCell id="3RTm3WkitcO1QFS_mcWZ-67" value="Departamento" style="swimlane;fontStyle=1;align=center;verticalAlign=top;childLayout=stackLayout;horizontal=1;startSize=26;horizontalStack=0;resizeParent=1;resizeParentMax=0;resizeLast=0;collapsible=1;marginBottom=0;whiteSpace=wrap;html=1;" parent="WIyWlLk6GJQsqaUBKTNV-1" vertex="1">
          <mxGeometry x="-290" y="750" width="300" height="230" as="geometry" />
        </mxCell>
        <mxCell id="3RTm3WkitcO1QFS_mcWZ-68" value="- m_id: long&lt;div&gt;- m_nome: string&lt;/div&gt;&lt;div&gt;- m_sigla: string&lt;/div&gt;&lt;div&gt;- m_professoresIds: Lista&amp;lt;long&amp;gt;&lt;/div&gt;&lt;div&gt;- m_cursosIds: Lista&amp;lt;long&amp;gt;&lt;/div&gt;" style="text;strokeColor=none;fillColor=none;align=left;verticalAlign=top;spacingLeft=4;spacingRight=4;overflow=hidden;rotatable=0;points=[[0,0.5],[1,0.5]];portConstraint=eastwest;whiteSpace=wrap;html=1;" parent="3RTm3WkitcO1QFS_mcWZ-67" vertex="1">
          <mxGeometry y="26" width="300" height="94" as="geometry" />
        </mxCell>
        <mxCell id="3RTm3WkitcO1QFS_mcWZ-69" value="" style="line;strokeWidth=1;fillColor=none;align=left;verticalAlign=middle;spacingTop=-1;spacingLeft=3;spacingRight=3;rotatable=0;labelPosition=right;points=[];portConstraint=eastwest;strokeColor=inherit;" parent="3RTm3WkitcO1QFS_mcWZ-67" vertex="1">
          <mxGeometry y="120" width="300" height="8" as="geometry" />
        </mxCell>
        <mxCell id="3RTm3WkitcO1QFS_mcWZ-70" value="+ getId(): long const&lt;div&gt;+ getNome(): const string&amp;amp;&lt;/div&gt;&lt;div&gt;+ adicionarProfessorId(long professorId): void&lt;/div&gt;&lt;div&gt;+ getProfessoresIds() const : const Lista&amp;lt;long&amp;gt;&amp;amp;&lt;/div&gt;&lt;div&gt;+ adicionarCursoId(long cursoId): void&lt;/div&gt;&lt;div&gt;+ getCursosIds() const: const Lista&amp;lt;long&amp;gt;&amp;amp;&lt;/div&gt;" style="text;strokeColor=none;fillColor=none;align=left;verticalAlign=top;spacingLeft=4;spacingRight=4;overflow=hidden;rotatable=0;points=[[0,0.5],[1,0.5]];portConstraint=eastwest;whiteSpace=wrap;html=1;" parent="3RTm3WkitcO1QFS_mcWZ-67" vertex="1">
          <mxGeometry y="128" width="300" height="102" as="geometry" />
        </mxCell>
        <mxCell id="3RTm3WkitcO1QFS_mcWZ-71" value="" style="endArrow=diamondThin;endFill=1;endSize=24;html=1;rounded=0;entryX=0;entryY=0.5;entryDx=0;entryDy=0;exitX=0.5;exitY=0;exitDx=0;exitDy=0;edgeStyle=orthogonalEdgeStyle;" parent="WIyWlLk6GJQsqaUBKTNV-1" source="3RTm3WkitcO1QFS_mcWZ-67" target="3RTm3WkitcO1QFS_mcWZ-24" edge="1">
          <mxGeometry width="160" relative="1" as="geometry">
            <mxPoint x="-200" y="540" as="sourcePoint" />
            <mxPoint x="-40" y="540" as="targetPoint" />
          </mxGeometry>
        </mxCell>
        <mxCell id="3RTm3WkitcO1QFS_mcWZ-72" value="1" style="text;html=1;align=center;verticalAlign=middle;resizable=0;points=[];autosize=1;strokeColor=none;fillColor=none;" parent="WIyWlLk6GJQsqaUBKTNV-1" vertex="1">
          <mxGeometry x="-40" y="540" width="30" height="30" as="geometry" />
        </mxCell>
        <mxCell id="3RTm3WkitcO1QFS_mcWZ-73" value="n" style="text;html=1;align=center;verticalAlign=middle;resizable=0;points=[];autosize=1;strokeColor=none;fillColor=none;" parent="WIyWlLk6GJQsqaUBKTNV-1" vertex="1">
          <mxGeometry x="-130" y="720" width="30" height="30" as="geometry" />
        </mxCell>
        <mxCell id="3RTm3WkitcO1QFS_mcWZ-76" value="Curso&amp;nbsp;" style="swimlane;fontStyle=1;align=center;verticalAlign=top;childLayout=stackLayout;horizontal=1;startSize=26;horizontalStack=0;resizeParent=1;resizeParentMax=0;resizeLast=0;collapsible=1;marginBottom=0;whiteSpace=wrap;html=1;" parent="WIyWlLk6GJQsqaUBKTNV-1" vertex="1">
          <mxGeometry x="-740" y="1090" width="390" height="220" as="geometry" />
        </mxCell>
        <mxCell id="3RTm3WkitcO1QFS_mcWZ-77" value="- m_id: long&lt;div&gt;- m_nome: string&lt;/div&gt;&lt;div&gt;- m_codigo: string&lt;/div&gt;&lt;div&gt;- m_departamentoId: long&lt;/div&gt;&lt;div&gt;- m_gradeCurricularIds: Lista&amp;lt;long&amp;gt;&lt;/div&gt;" style="text;strokeColor=none;fillColor=none;align=left;verticalAlign=top;spacingLeft=4;spacingRight=4;overflow=hidden;rotatable=0;points=[[0,0.5],[1,0.5]];portConstraint=eastwest;whiteSpace=wrap;html=1;" parent="3RTm3WkitcO1QFS_mcWZ-76" vertex="1">
          <mxGeometry y="26" width="390" height="84" as="geometry" />
        </mxCell>
        <mxCell id="3RTm3WkitcO1QFS_mcWZ-78" value="" style="line;strokeWidth=1;fillColor=none;align=left;verticalAlign=middle;spacingTop=-1;spacingLeft=3;spacingRight=3;rotatable=0;labelPosition=right;points=[];portConstraint=eastwest;strokeColor=inherit;" parent="3RTm3WkitcO1QFS_mcWZ-76" vertex="1">
          <mxGeometry y="110" width="390" height="8" as="geometry" />
        </mxCell>
        <mxCell id="3RTm3WkitcO1QFS_mcWZ-79" value="+ getId(): long const&lt;div&gt;+ getNome(): const string&amp;amp;&lt;/div&gt;&lt;div&gt;+ getDepartamentoId(): long const&amp;nbsp;&lt;/div&gt;&lt;div&gt;+ adicionarDisciplinaNaGrade(long disciplinaId): void&lt;/div&gt;&lt;div&gt;+ getGradeCurricularIds() const: const Lista&amp;lt;long&amp;gt;&amp;amp;&lt;/div&gt;" style="text;strokeColor=none;fillColor=none;align=left;verticalAlign=top;spacingLeft=4;spacingRight=4;overflow=hidden;rotatable=0;points=[[0,0.5,0,0,0],[0.46,1,0,0,1],[1,0.5,0,0,0]];portConstraint=eastwest;whiteSpace=wrap;html=1;" parent="3RTm3WkitcO1QFS_mcWZ-76" vertex="1">
          <mxGeometry y="118" width="390" height="102" as="geometry" />
        </mxCell>
        <mxCell id="3RTm3WkitcO1QFS_mcWZ-82" value="" style="endArrow=diamondThin;endFill=1;endSize=24;html=1;rounded=0;entryX=0;entryY=0.5;entryDx=0;entryDy=0;exitX=0.5;exitY=0;exitDx=0;exitDy=0;edgeStyle=orthogonalEdgeStyle;" parent="WIyWlLk6GJQsqaUBKTNV-1" source="3RTm3WkitcO1QFS_mcWZ-76" target="3RTm3WkitcO1QFS_mcWZ-70" edge="1">
          <mxGeometry width="160" relative="1" as="geometry">
            <mxPoint x="-430" y="1180" as="sourcePoint" />
            <mxPoint x="-160" y="990" as="targetPoint" />
          </mxGeometry>
        </mxCell>
        <mxCell id="3RTm3WkitcO1QFS_mcWZ-83" value="Disciplina" style="swimlane;fontStyle=1;align=center;verticalAlign=top;childLayout=stackLayout;horizontal=1;startSize=26;horizontalStack=0;resizeParent=1;resizeParentMax=0;resizeLast=0;collapsible=1;marginBottom=0;whiteSpace=wrap;html=1;" parent="WIyWlLk6GJQsqaUBKTNV-1" vertex="1">
          <mxGeometry x="-736" y="1430" width="350" height="230" as="geometry" />
        </mxCell>
        <mxCell id="3RTm3WkitcO1QFS_mcWZ-84" value="- m_id: long&lt;div&gt;- m_nome: string&lt;/div&gt;&lt;div&gt;- m_creditos: int&lt;/div&gt;&lt;div&gt;- m_prerequisitosIds: Lista&amp;lt;long&amp;gt;&lt;/div&gt;" style="text;strokeColor=none;fillColor=none;align=left;verticalAlign=top;spacingLeft=4;spacingRight=4;overflow=hidden;rotatable=0;points=[[0,0.5],[1,0.5]];portConstraint=eastwest;whiteSpace=wrap;html=1;" parent="3RTm3WkitcO1QFS_mcWZ-83" vertex="1">
          <mxGeometry y="26" width="350" height="94" as="geometry" />
        </mxCell>
        <mxCell id="3RTm3WkitcO1QFS_mcWZ-85" value="" style="line;strokeWidth=1;fillColor=none;align=left;verticalAlign=middle;spacingTop=-1;spacingLeft=3;spacingRight=3;rotatable=0;labelPosition=right;points=[];portConstraint=eastwest;strokeColor=inherit;" parent="3RTm3WkitcO1QFS_mcWZ-83" vertex="1">
          <mxGeometry y="120" width="350" height="8" as="geometry" />
        </mxCell>
        <mxCell id="3RTm3WkitcO1QFS_mcWZ-86" value="+ getId(): long const&lt;div&gt;+ getNome(): const string&amp;amp;&lt;/div&gt;&lt;div&gt;+ adicionarPrerequisito(long disciplinaId): void&lt;/div&gt;&lt;div&gt;+ getPrerequisitosIds() const: const Lista&amp;lt;long&amp;gt;&amp;amp;&lt;/div&gt;" style="text;strokeColor=none;fillColor=none;align=left;verticalAlign=top;spacingLeft=4;spacingRight=4;overflow=hidden;rotatable=0;points=[[0,0.5],[1,0.5]];portConstraint=eastwest;whiteSpace=wrap;html=1;" parent="3RTm3WkitcO1QFS_mcWZ-83" vertex="1">
          <mxGeometry y="128" width="350" height="102" as="geometry" />
        </mxCell>
        <mxCell id="3RTm3WkitcO1QFS_mcWZ-87" value="" style="endArrow=diamondThin;endFill=0;endSize=24;html=1;rounded=0;entryX=0.46;entryY=1;entryDx=0;entryDy=1;entryPerimeter=0;exitX=0.5;exitY=0;exitDx=0;exitDy=0;" parent="WIyWlLk6GJQsqaUBKTNV-1" source="3RTm3WkitcO1QFS_mcWZ-83" target="3RTm3WkitcO1QFS_mcWZ-79" edge="1">
          <mxGeometry width="160" relative="1" as="geometry">
            <mxPoint x="-510" y="1550" as="sourcePoint" />
            <mxPoint x="-510" y="1340" as="targetPoint" />
          </mxGeometry>
        </mxCell>
        <mxCell id="3RTm3WkitcO1QFS_mcWZ-96" value="HistoricoAcademico" style="swimlane;fontStyle=1;align=center;verticalAlign=top;childLayout=stackLayout;horizontal=1;startSize=26;horizontalStack=0;resizeParent=1;resizeParentMax=0;resizeLast=0;collapsible=1;marginBottom=0;whiteSpace=wrap;html=1;" parent="WIyWlLk6GJQsqaUBKTNV-1" vertex="1">
          <mxGeometry x="-90" y="1100" width="290" height="130" as="geometry" />
        </mxCell>
        <mxCell id="3RTm3WkitcO1QFS_mcWZ-97" value="- m_notas: Lista&amp;lt;Nota&amp;gt;" style="text;strokeColor=none;fillColor=none;align=left;verticalAlign=top;spacingLeft=4;spacingRight=4;overflow=hidden;rotatable=0;points=[[0,0.5],[1,0.5]];portConstraint=eastwest;whiteSpace=wrap;html=1;" parent="3RTm3WkitcO1QFS_mcWZ-96" vertex="1">
          <mxGeometry y="26" width="290" height="44" as="geometry" />
        </mxCell>
        <mxCell id="3RTm3WkitcO1QFS_mcWZ-98" value="" style="line;strokeWidth=1;fillColor=none;align=left;verticalAlign=middle;spacingTop=-1;spacingLeft=3;spacingRight=3;rotatable=0;labelPosition=right;points=[];portConstraint=eastwest;strokeColor=inherit;" parent="3RTm3WkitcO1QFS_mcWZ-96" vertex="1">
          <mxGeometry y="70" width="290" height="8" as="geometry" />
        </mxCell>
        <mxCell id="3RTm3WkitcO1QFS_mcWZ-99" value="+&amp;nbsp; adicionarNota(const Nota&amp;amp; nota): void&lt;div&gt;+ getNotaPorDisciplina(long disciplinaId): Nota*&lt;/div&gt;&lt;div&gt;+ calcularCR(): double&lt;/div&gt;" style="text;strokeColor=none;fillColor=none;align=left;verticalAlign=top;spacingLeft=4;spacingRight=4;overflow=hidden;rotatable=0;points=[[0,0.5],[1,0.5]];portConstraint=eastwest;whiteSpace=wrap;html=1;" parent="3RTm3WkitcO1QFS_mcWZ-96" vertex="1">
          <mxGeometry y="78" width="290" height="52" as="geometry" />
        </mxCell>
        <mxCell id="3RTm3WkitcO1QFS_mcWZ-104" value="Turma" style="swimlane;fontStyle=1;align=center;verticalAlign=top;childLayout=stackLayout;horizontal=1;startSize=26;horizontalStack=0;resizeParent=1;resizeParentMax=0;resizeLast=0;collapsible=1;marginBottom=0;whiteSpace=wrap;html=1;" parent="WIyWlLk6GJQsqaUBKTNV-1" vertex="1">
          <mxGeometry x="-1020" y="1710" width="310" height="190" as="geometry" />
        </mxCell>
        <mxCell id="3RTm3WkitcO1QFS_mcWZ-105" value="-&amp;nbsp; m_id: long&lt;div&gt;- m_disciplinaId: long&lt;/div&gt;&lt;div&gt;- m_professorId: long&lt;/div&gt;&lt;div&gt;- m_semestre: string&lt;/div&gt;&lt;div&gt;- m_vagas: int&lt;/div&gt;&lt;div&gt;- m_alunosMatriculadosIds: Lista&amp;lt;long&amp;gt;&lt;/div&gt;" style="text;strokeColor=none;fillColor=none;align=left;verticalAlign=top;spacingLeft=4;spacingRight=4;overflow=hidden;rotatable=0;points=[[0,0.5],[1,0.5]];portConstraint=eastwest;whiteSpace=wrap;html=1;" parent="3RTm3WkitcO1QFS_mcWZ-104" vertex="1">
          <mxGeometry y="26" width="310" height="104" as="geometry" />
        </mxCell>
        <mxCell id="3RTm3WkitcO1QFS_mcWZ-106" value="" style="line;strokeWidth=1;fillColor=none;align=left;verticalAlign=middle;spacingTop=-1;spacingLeft=3;spacingRight=3;rotatable=0;labelPosition=right;points=[];portConstraint=eastwest;strokeColor=inherit;" parent="3RTm3WkitcO1QFS_mcWZ-104" vertex="1">
          <mxGeometry y="130" width="310" height="8" as="geometry" />
        </mxCell>
        <mxCell id="3RTm3WkitcO1QFS_mcWZ-107" value="+ inscreverAluno(long alunoId): bool&lt;div&gt;+ getVagasDisponiveis(): int&lt;/div&gt;" style="text;strokeColor=none;fillColor=none;align=left;verticalAlign=top;spacingLeft=4;spacingRight=4;overflow=hidden;rotatable=0;points=[[0,0.5],[1,0.5]];portConstraint=eastwest;whiteSpace=wrap;html=1;" parent="3RTm3WkitcO1QFS_mcWZ-104" vertex="1">
          <mxGeometry y="138" width="310" height="52" as="geometry" />
        </mxCell>
        <mxCell id="3RTm3WkitcO1QFS_mcWZ-108" value="Lista&amp;lt;T&amp;gt;" style="swimlane;fontStyle=1;align=center;verticalAlign=top;childLayout=stackLayout;horizontal=1;startSize=26;horizontalStack=0;resizeParent=1;resizeParentMax=0;resizeLast=0;collapsible=1;marginBottom=0;whiteSpace=wrap;html=1;" parent="WIyWlLk6GJQsqaUBKTNV-1" vertex="1">
          <mxGeometry x="-320" y="110" width="260" height="170" as="geometry" />
        </mxCell>
        <mxCell id="3RTm3WkitcO1QFS_mcWZ-109" value="- elementos: T*&lt;div&gt;- capacidade: int&lt;/div&gt;&lt;div&gt;- tamanho: int&lt;/div&gt;" style="text;strokeColor=none;fillColor=none;align=left;verticalAlign=top;spacingLeft=4;spacingRight=4;overflow=hidden;rotatable=0;points=[[0,0.5],[1,0.5]];portConstraint=eastwest;whiteSpace=wrap;html=1;" parent="3RTm3WkitcO1QFS_mcWZ-108" vertex="1">
          <mxGeometry y="26" width="260" height="54" as="geometry" />
        </mxCell>
        <mxCell id="3RTm3WkitcO1QFS_mcWZ-110" value="" style="line;strokeWidth=1;fillColor=none;align=left;verticalAlign=middle;spacingTop=-1;spacingLeft=3;spacingRight=3;rotatable=0;labelPosition=right;points=[];portConstraint=eastwest;strokeColor=inherit;" parent="3RTm3WkitcO1QFS_mcWZ-108" vertex="1">
          <mxGeometry y="80" width="260" height="8" as="geometry" />
        </mxCell>
        <mxCell id="3RTm3WkitcO1QFS_mcWZ-111" value="+ adicionar(const T&amp;amp; elemento): void&lt;div&gt;+ remover(int indice): void&lt;/div&gt;&lt;div&gt;+ obter(int indice): T&amp;amp;&lt;/div&gt;&lt;div&gt;+ getTamanho(): int&lt;/div&gt;" style="text;strokeColor=none;fillColor=none;align=left;verticalAlign=top;spacingLeft=4;spacingRight=4;overflow=hidden;rotatable=0;points=[[0,0.5],[1,0.5]];portConstraint=eastwest;whiteSpace=wrap;html=1;" parent="3RTm3WkitcO1QFS_mcWZ-108" vertex="1">
          <mxGeometry y="88" width="260" height="82" as="geometry" />
        </mxCell>
        <mxCell id="3RTm3WkitcO1QFS_mcWZ-112" value="Nota" style="swimlane;fontStyle=0;childLayout=stackLayout;horizontal=1;startSize=26;fillColor=none;horizontalStack=0;resizeParent=1;resizeParentMax=0;resizeLast=0;collapsible=1;marginBottom=0;whiteSpace=wrap;html=1;" parent="WIyWlLk6GJQsqaUBKTNV-1" vertex="1">
          <mxGeometry x="-260" y="1280" width="140" height="78" as="geometry" />
        </mxCell>
        <mxCell id="3RTm3WkitcO1QFS_mcWZ-113" value="- m_disciplinaId: long" style="text;strokeColor=none;fillColor=none;align=left;verticalAlign=top;spacingLeft=4;spacingRight=4;overflow=hidden;rotatable=0;points=[[0,0.5],[1,0.5]];portConstraint=eastwest;whiteSpace=wrap;html=1;" parent="3RTm3WkitcO1QFS_mcWZ-112" vertex="1">
          <mxGeometry y="26" width="140" height="26" as="geometry" />
        </mxCell>
        <mxCell id="3RTm3WkitcO1QFS_mcWZ-114" value="- m_valor: double" style="text;strokeColor=none;fillColor=none;align=left;verticalAlign=top;spacingLeft=4;spacingRight=4;overflow=hidden;rotatable=0;points=[[0,0.5],[1,0.5]];portConstraint=eastwest;whiteSpace=wrap;html=1;" parent="3RTm3WkitcO1QFS_mcWZ-112" vertex="1">
          <mxGeometry y="52" width="140" height="26" as="geometry" />
        </mxCell>
        <mxCell id="3RTm3WkitcO1QFS_mcWZ-116" value="" style="endArrow=diamondThin;endFill=0;endSize=24;html=1;rounded=0;exitX=0.5;exitY=0;exitDx=0;exitDy=0;entryX=0;entryY=0.5;entryDx=0;entryDy=0;edgeStyle=orthogonalEdgeStyle;" parent="WIyWlLk6GJQsqaUBKTNV-1" source="3RTm3WkitcO1QFS_mcWZ-104" target="3RTm3WkitcO1QFS_mcWZ-86" edge="1">
          <mxGeometry width="160" relative="1" as="geometry">
            <mxPoint x="-520" y="1790" as="sourcePoint" />
            <mxPoint x="-360" y="1790" as="targetPoint" />
          </mxGeometry>
        </mxCell>
        <mxCell id="3RTm3WkitcO1QFS_mcWZ-117" value="" style="endArrow=diamondThin;endFill=1;endSize=24;html=1;rounded=0;entryX=0;entryY=0.5;entryDx=0;entryDy=0;entryPerimeter=0;exitX=0.5;exitY=0;exitDx=0;exitDy=0;edgeStyle=orthogonalEdgeStyle;" parent="WIyWlLk6GJQsqaUBKTNV-1" source="3RTm3WkitcO1QFS_mcWZ-96" target="3RTm3WkitcO1QFS_mcWZ-35" edge="1">
          <mxGeometry width="160" relative="1" as="geometry">
            <mxPoint x="50" y="1040" as="sourcePoint" />
            <mxPoint x="210" y="1040" as="targetPoint" />
          </mxGeometry>
        </mxCell>
        <mxCell id="3RTm3WkitcO1QFS_mcWZ-118" value="" style="endArrow=diamondThin;endFill=1;endSize=24;html=1;rounded=0;entryX=0.5;entryY=0;entryDx=0;entryDy=0;exitX=0;exitY=0.5;exitDx=0;exitDy=0;edgeStyle=orthogonalEdgeStyle;" parent="WIyWlLk6GJQsqaUBKTNV-1" source="3RTm3WkitcO1QFS_mcWZ-99" target="3RTm3WkitcO1QFS_mcWZ-112" edge="1">
          <mxGeometry width="160" relative="1" as="geometry">
            <mxPoint x="-260" y="1360" as="sourcePoint" />
            <mxPoint x="-100" y="1360" as="targetPoint" />
          </mxGeometry>
        </mxCell>
      </root>
    </mxGraphModel>
  </diagram>
</mxfile>
